<svg xmlns="http://www.w3.org/2000/svg" xmlns:xlink="http://www.w3.org/1999/xlink" width="1000.2992" height="215.5203" viewBox="0 0 1000.2992 215.5203">
    <title>
        FlightGraphic
    </title>
<!--<image id="greyed" width="8940" height="1490" transform="translate(0.146) scale(0.1119)" xlink:href="FlightGraphic1.png"/> <image id="standing" width="939" height="367" transform="translate(0.146 125.6152) scale(0.1119)" xlink:href="FlightGraphic2.png"/> <image id="taxi" width="939" height="367" transform="translate(112.0029 125.6152) scale(0.1119)" xlink:href="FlightGraphic3.png"/> <image id="takeoff" width="974" height="287" transform="translate(217.2601 127.7405) scale(0.1119)" xlink:href="FlightGraphic4.png"/> <image id="climbing" width="916" height="540" transform="translate(335.3809 51.6779) scale(0.1119)" xlink:href="FlightGraphic5.png"/> <image id="cruising" width="939" height="367" transform="translate(447.6852) scale(0.1119)" xlink:href="FlightGraphic6.png"/> <image id="descent" width="772" height="737" transform="translate(568.8261 29.6421) scale(0.1119)" xlink:href="FlightGraphic7.png"/> <image id="approach" width="924" height="444" transform="translate(670.8396 102.2371) scale(0.1119)" xlink:href="FlightGraphic8.png"/> <image id="landing" width="939" height="367" transform="translate(783.9691 126.0694) scale(0.1119)" xlink:href="FlightGraphic9.png"/> <image id="other" width="939" height="367" transform="translate(895.0026 125.0694) scale(0.1119)" xlink:href="FlightGraphic10.png"/>-->
    <path d="M10.9274,230.6881c14.937.4364,37.6258.9525,65.3379.9793,2.02.002,40.759.0205,65.9343-.8872,40.24-1.4509,82.87-2.988,130.0979-16.1251,0,0,66.35-18.4563,143.7636-70.5474.1737-.1169,11.3452-7.4336,33.6883-22.0669,19.3448-12.67,29.1117-19.0391,33.74-20.7356,28.0235-10.2713,54.77-1.7029,58.3761-.4937,8.8678,2.9738,12.8339,6.0053,33.2047,20.7356,35.5276,25.69,53.5442,38.69,65.9279,46.26a322.059,322.059,0,0,0,51.2094,26.21c20.5722,8.1885,38.7967,12.7538,63.8571,17.6143A1024.1353,1024.1353,0,0,0,875.4,227.5712a1108.6586,1108.6586,0,0,0,135.4178,1.0823" style="fill:#fff;stroke:#000;stroke-miterlimit:10;stroke-width:10px" transform="translate(-10.7814 -21.1474)"/>
    <svg xmlns="http://www.w3.org/2000/svg" id="standing" width="80pt" height="80pt" viewBox="0 -131 475.35 475">
        <path d="m428.351562 155.175781h43.46875c-6.570312-14.550781-21.023437-23.929687-36.988281-24h-15.15625v14.722657c0 4.960937 3.710938 9.277343 8.675781 9.277343zm0 0"/>
        <path d="m428.351562 169.175781c-12.683593 0-22.675781-10.601562-22.675781-23.277343v-14.722657h-107.046875l18.1875 20.691407c1.800782 1.996093 2.230469 4.875 1.09375 7.308593-1.148437 2.472657-3.644531 4.039063-6.371094 4h-104.476562c-2.367188.09375-4.613281-1.054687-5.925781-3.03125l-18.375-28.96875h-114.605469c-2.308594-.074219-4.445312-1.253906-5.734375-3.171875l-37.535156-53.828125h-24.886719l29.855469 90.386719 141.199219 47.613281h263.777343c22.363281-.019531 40.488281-18.136719 40.519531-40.5 0-.84375-.035156-1.5-.085937-2.5zm0 0"/>
        <path d="m296.160156 149.175781-129.710937-149h-49.21875l93.699219 149zm0 0"/>
    </svg>
    <svg xmlns="http://www.w3.org/2000/svg" id="taxi" width="80pt" height="80pt" viewBox="0 -131 475.35 475">
        <path d="m428.351562 155.175781h43.46875c-6.570312-14.550781-21.023437-23.929687-36.988281-24h-15.15625v14.722657c0 4.960937 3.710938 9.277343 8.675781 9.277343zm0 0"/>
        <path d="m428.351562 169.175781c-12.683593 0-22.675781-10.601562-22.675781-23.277343v-14.722657h-107.046875l18.1875 20.691407c1.800782 1.996093 2.230469 4.875 1.09375 7.308593-1.148437 2.472657-3.644531 4.039063-6.371094 4h-104.476562c-2.367188.09375-4.613281-1.054687-5.925781-3.03125l-18.375-28.96875h-114.605469c-2.308594-.074219-4.445312-1.253906-5.734375-3.171875l-37.535156-53.828125h-24.886719l29.855469 90.386719 141.199219 47.613281h263.777343c22.363281-.019531 40.488281-18.136719 40.519531-40.5 0-.84375-.035156-1.5-.085937-2.5zm0 0"/>
        <path d="m296.160156 149.175781-129.710937-149h-49.21875l93.699219 149zm0 0"/>
    </svg>
    <svg xmlns="http://www.w3.org/2000/svg" id="takeoff" width="80pt" height="80pt" viewBox="0 -131 475.35 475">
        <path d="m428.351562 155.175781h43.46875c-6.570312-14.550781-21.023437-23.929687-36.988281-24h-15.15625v14.722657c0 4.960937 3.710938 9.277343 8.675781 9.277343zm0 0"/>
        <path d="m428.351562 169.175781c-12.683593 0-22.675781-10.601562-22.675781-23.277343v-14.722657h-107.046875l18.1875 20.691407c1.800782 1.996093 2.230469 4.875 1.09375 7.308593-1.148437 2.472657-3.644531 4.039063-6.371094 4h-104.476562c-2.367188.09375-4.613281-1.054687-5.925781-3.03125l-18.375-28.96875h-114.605469c-2.308594-.074219-4.445312-1.253906-5.734375-3.171875l-37.535156-53.828125h-24.886719l29.855469 90.386719 141.199219 47.613281h263.777343c22.363281-.019531 40.488281-18.136719 40.519531-40.5 0-.84375-.035156-1.5-.085937-2.5zm0 0"/>
        <path d="m296.160156 149.175781-129.710937-149h-49.21875l93.699219 149zm0 0"/>
    </svg>
    <svg xmlns="http://www.w3.org/2000/svg" id="climbing" width="80pt" height="80pt" viewBox="0 -131 475.35 475">
        <path d="m428.351562 155.175781h43.46875c-6.570312-14.550781-21.023437-23.929687-36.988281-24h-15.15625v14.722657c0 4.960937 3.710938 9.277343 8.675781 9.277343zm0 0"/>
        <path d="m428.351562 169.175781c-12.683593 0-22.675781-10.601562-22.675781-23.277343v-14.722657h-107.046875l18.1875 20.691407c1.800782 1.996093 2.230469 4.875 1.09375 7.308593-1.148437 2.472657-3.644531 4.039063-6.371094 4h-104.476562c-2.367188.09375-4.613281-1.054687-5.925781-3.03125l-18.375-28.96875h-114.605469c-2.308594-.074219-4.445312-1.253906-5.734375-3.171875l-37.535156-53.828125h-24.886719l29.855469 90.386719 141.199219 47.613281h263.777343c22.363281-.019531 40.488281-18.136719 40.519531-40.5 0-.84375-.035156-1.5-.085937-2.5zm0 0"/>
        <path d="m296.160156 149.175781-129.710937-149h-49.21875l93.699219 149zm0 0"/>
    </svg>
    <svg xmlns="http://www.w3.org/2000/svg" id="cruising" width="80pt" height="80pt" viewBox="0 -131 475.35 475">
        <path d="m428.351562 155.175781h43.46875c-6.570312-14.550781-21.023437-23.929687-36.988281-24h-15.15625v14.722657c0 4.960937 3.710938 9.277343 8.675781 9.277343zm0 0"/>
        <path d="m428.351562 169.175781c-12.683593 0-22.675781-10.601562-22.675781-23.277343v-14.722657h-107.046875l18.1875 20.691407c1.800782 1.996093 2.230469 4.875 1.09375 7.308593-1.148437 2.472657-3.644531 4.039063-6.371094 4h-104.476562c-2.367188.09375-4.613281-1.054687-5.925781-3.03125l-18.375-28.96875h-114.605469c-2.308594-.074219-4.445312-1.253906-5.734375-3.171875l-37.535156-53.828125h-24.886719l29.855469 90.386719 141.199219 47.613281h263.777343c22.363281-.019531 40.488281-18.136719 40.519531-40.5 0-.84375-.035156-1.5-.085937-2.5zm0 0"/>
        <path d="m296.160156 149.175781-129.710937-149h-49.21875l93.699219 149zm0 0"/>
    </svg>
    <svg xmlns="http://www.w3.org/2000/svg" id="descent" width="80pt" height="80pt" viewBox="0 -131 475.35 475">
        <path d="m428.351562 155.175781h43.46875c-6.570312-14.550781-21.023437-23.929687-36.988281-24h-15.15625v14.722657c0 4.960937 3.710938 9.277343 8.675781 9.277343zm0 0"/>
        <path d="m428.351562 169.175781c-12.683593 0-22.675781-10.601562-22.675781-23.277343v-14.722657h-107.046875l18.1875 20.691407c1.800782 1.996093 2.230469 4.875 1.09375 7.308593-1.148437 2.472657-3.644531 4.039063-6.371094 4h-104.476562c-2.367188.09375-4.613281-1.054687-5.925781-3.03125l-18.375-28.96875h-114.605469c-2.308594-.074219-4.445312-1.253906-5.734375-3.171875l-37.535156-53.828125h-24.886719l29.855469 90.386719 141.199219 47.613281h263.777343c22.363281-.019531 40.488281-18.136719 40.519531-40.5 0-.84375-.035156-1.5-.085937-2.5zm0 0"/>
        <path d="m296.160156 149.175781-129.710937-149h-49.21875l93.699219 149zm0 0"/>
    </svg>
    <svg xmlns="http://www.w3.org/2000/svg" id="approach" width="80pt" height="80pt" viewBox="0 -131 475.35 475">
        <path d="m428.351562 155.175781h43.46875c-6.570312-14.550781-21.023437-23.929687-36.988281-24h-15.15625v14.722657c0 4.960937 3.710938 9.277343 8.675781 9.277343zm0 0"/>
        <path d="m428.351562 169.175781c-12.683593 0-22.675781-10.601562-22.675781-23.277343v-14.722657h-107.046875l18.1875 20.691407c1.800782 1.996093 2.230469 4.875 1.09375 7.308593-1.148437 2.472657-3.644531 4.039063-6.371094 4h-104.476562c-2.367188.09375-4.613281-1.054687-5.925781-3.03125l-18.375-28.96875h-114.605469c-2.308594-.074219-4.445312-1.253906-5.734375-3.171875l-37.535156-53.828125h-24.886719l29.855469 90.386719 141.199219 47.613281h263.777343c22.363281-.019531 40.488281-18.136719 40.519531-40.5 0-.84375-.035156-1.5-.085937-2.5zm0 0"/>
        <path d="m296.160156 149.175781-129.710937-149h-49.21875l93.699219 149zm0 0"/>
    </svg>
    <svg xmlns="http://www.w3.org/2000/svg" id="landing" width="80pt" height="80pt" viewBox="0 -131 475.35 475">
        <path d="m428.351562 155.175781h43.46875c-6.570312-14.550781-21.023437-23.929687-36.988281-24h-15.15625v14.722657c0 4.960937 3.710938 9.277343 8.675781 9.277343zm0 0"/>
        <path d="m428.351562 169.175781c-12.683593 0-22.675781-10.601562-22.675781-23.277343v-14.722657h-107.046875l18.1875 20.691407c1.800782 1.996093 2.230469 4.875 1.09375 7.308593-1.148437 2.472657-3.644531 4.039063-6.371094 4h-104.476562c-2.367188.09375-4.613281-1.054687-5.925781-3.03125l-18.375-28.96875h-114.605469c-2.308594-.074219-4.445312-1.253906-5.734375-3.171875l-37.535156-53.828125h-24.886719l29.855469 90.386719 141.199219 47.613281h263.777343c22.363281-.019531 40.488281-18.136719 40.519531-40.5 0-.84375-.035156-1.5-.085937-2.5zm0 0"/>
        <path d="m296.160156 149.175781-129.710937-149h-49.21875l93.699219 149zm0 0"/>
    </svg>
    <svg xmlns="http://www.w3.org/2000/svg" id="other" width="80pt" height="80pt" viewBox="0 -131 475.35 475">
        <path d="m428.351562 155.175781h43.46875c-6.570312-14.550781-21.023437-23.929687-36.988281-24h-15.15625v14.722657c0 4.960937 3.710938 9.277343 8.675781 9.277343zm0 0"/>
        <path d="m428.351562 169.175781c-12.683593 0-22.675781-10.601562-22.675781-23.277343v-14.722657h-107.046875l18.1875 20.691407c1.800782 1.996093 2.230469 4.875 1.09375 7.308593-1.148437 2.472657-3.644531 4.039063-6.371094 4h-104.476562c-2.367188.09375-4.613281-1.054687-5.925781-3.03125l-18.375-28.96875h-114.605469c-2.308594-.074219-4.445312-1.253906-5.734375-3.171875l-37.535156-53.828125h-24.886719l29.855469 90.386719 141.199219 47.613281h263.777343c22.363281-.019531 40.488281-18.136719 40.519531-40.5 0-.84375-.035156-1.5-.085937-2.5zm0 0"/>
        <path d="m296.160156 149.175781-129.710937-149h-49.21875l93.699219 149zm0 0"/>
    </svg>
</svg>
