<svg id="Group_2" data-name="Group 2" xmlns="http://www.w3.org/2000/svg" xmlns:xlink="http://www.w3.org/1999/xlink" width="1022.6349" height="272.8555" viewBox="0 0 1022.6349 272.8555">
  <title>FlightGraphic</title>
  <g id="Image_11_Image" data-name="Image 11 Image" style="opacity: 0.63921568627451">
    <image id="Image_11_Image-2" data-name="Image 11 Image" width="8940" height="1490" transform="translate(10.9274 21.1474) scale(0.1119)" xlink:href="FlightGraphic1.png"/>
  </g>
  <g id="standing">
    <image id="Layer_2_Image" data-name="Layer 2 Image" width="939" height="367" transform="translate(10.9274 146.7626) scale(0.1119)" xlink:href="FlightGraphic2.png"/>
  </g>
  <g id="taxi">
    <image id="Layer_2_copy_Image" data-name="Layer 2 copy Image" width="939" height="367" transform="translate(122.7842 146.7626) scale(0.1119)" xlink:href="FlightGraphic3.png"/>
  </g>
  <g id="takeoff">
    <image id="Layer_2_copy_2_Image" data-name="Layer 2 copy 2 Image" width="974" height="287" transform="translate(228.0415 148.8879) scale(0.1119)" xlink:href="FlightGraphic4.png"/>
  </g>
  <g id="climbing">
    <image id="Layer_2_copy_3_Image" data-name="Layer 2 copy 3 Image" width="916" height="540" transform="translate(346.1623 72.8253) scale(0.1119)" xlink:href="FlightGraphic5.png"/>
  </g>
  <g id="cruising">
    <image id="Layer_2_copy_4_Image" data-name="Layer 2 copy 4 Image" width="939" height="367" transform="translate(458.4666 21.1474) scale(0.1119)" xlink:href="FlightGraphic6.png"/>
  </g>
  <g id="descent">
    <image id="Layer_2_copy_5_Image" data-name="Layer 2 copy 5 Image" width="772" height="737" transform="translate(579.6075 50.7895) scale(0.1119)" xlink:href="FlightGraphic7.png"/>
  </g>
  <g id="approach">
    <image id="Layer_2_copy_6_Image" data-name="Layer 2 copy 6 Image" width="924" height="444" transform="translate(681.6209 123.3846) scale(0.1119)" xlink:href="FlightGraphic8.png"/>
  </g>
  <g id="landing">
    <image id="Layer_2_copy_7_Image" data-name="Layer 2 copy 7 Image" width="939" height="367" transform="translate(794.7505 147.2168) scale(0.1119)" xlink:href="FlightGraphic9.png"/>
  </g>
  <g id="other">
    <image id="Layer_2_copy_8_Image" data-name="Layer 2 copy 8 Image" width="939" height="367" transform="translate(905.7839 146.2168) scale(0.1119)" xlink:href="FlightGraphic10.png"/>
  </g>
  <path d="M10.9274,230.6881c14.937.4364,37.6258.9525,65.3379.9793,2.02.002,40.759.0205,65.9343-.8872,40.24-1.4509,82.87-2.988,130.0979-16.1251,0,0,66.35-18.4563,143.7636-70.5474.1737-.1169,11.3452-7.4336,33.6883-22.0669,19.3448-12.67,29.1117-19.0391,33.74-20.7356,28.0235-10.2713,54.77-1.7029,58.3761-.4937,8.8678,2.9738,12.8339,6.0053,33.2047,20.7356,35.5276,25.69,53.5442,38.69,65.9279,46.26a322.059,322.059,0,0,0,51.2094,26.21c20.5722,8.1885,38.7967,12.7538,63.8571,17.6143A1024.1353,1024.1353,0,0,0,875.4,227.5712a1108.6586,1108.6586,0,0,0,135.4178,1.0823" style="fill: #fff;stroke: #000;stroke-miterlimit: 10;stroke-width: 10px"/>
</svg>
